<svg xmlns="http://www.w3.org/2000/svg" viewBox="0 0 500 500"><g id="freepik--Characters--inject-77"><path d="M321.48,469.88,325,447.64l106.7-8.78s11.25,14,13.34,31.43Z" style="fill:#263238"></path><path d="M315,320.74l-26,61.1-33,46,13.22,28.36s39.68-46.68,46.15-54.32,24.81-56,24.81-56Z" style="fill:#455a64"></path><path d="M337.79,290c8.69-26.62-4.88-50.16,4.57-83.53,5.8-20.48,35.85-26.55,35.85-26.55,36.76-2.4,43.32,23.34,47,46.79,1.75,11,16.94,51.89,18.72,68.5s-1.71,18.11,10.63,32.27c2.53,2.91,7,5.93,4.75,12.43-1.22,3.52-7.3,10.56-11.19,11.65,3.66,4.94,2.58,12-1.57,16.62s-10.78,6.93-17.31,7.29-13-1.07-19.25-2.87c-21.46-6.22-41.45-17.38-55.8-33.2S328,313.06,337.79,290Z" style="fill:#263238"></path><path d="M373.32,189.53l2.3-2.19,24.85,10a6.94,6.94,0,0,1,6.55,6.72l-3.18,48.32c0,5.49.48,43.57.48,43.57l-5.39,8.32c-8,10.5-24.33,9.64-30.63-1.94a8.82,8.82,0,0,1-.88-2.09,17.17,17.17,0,0,1-.37-1.81c-.74-6.52-1.37-6.55-1.37-6.55-.45-7.15,0-15.7,0-15.64S350.46,274.5,346.34,255c-2-9.71-1.66-23.08-1.08-36.24C346.05,200.51,358.68,189.51,373.32,189.53Z" style="fill:#ae7461"></path><path d="M373.38,231.71a2.54,2.54,0,0,0,2.57,2.43,2.43,2.43,0,0,0,2.49-2.41,2.54,2.54,0,0,0-2.57-2.43A2.43,2.43,0,0,0,373.38,231.71Z" style="fill:#263238"></path><path d="M349.08,231.71a2.53,2.53,0,0,0,2.56,2.43,2.42,2.42,0,0,0,2.49-2.41,2.53,2.53,0,0,0-2.56-2.43A2.43,2.43,0,0,0,349.08,231.71Z" style="fill:#263238"></path><path d="M347.85,223.93c.33.31,2.18-1.2,4.9-1.33s4.77,1.13,5.05.78c.14-.15-.21-.73-1.11-1.32a7,7,0,0,0-4.07-1,6.71,6.71,0,0,0-3.87,1.47C348,223.18,347.69,223.79,347.85,223.93Z" style="fill:#263238"></path><path d="M375.44,224.21c.36.28,2-1.42,4.73-1.82s4.87.63,5.11.25c.12-.16-.28-.7-1.24-1.2a7,7,0,0,0-4.16-.61,6.69,6.69,0,0,0-3.7,1.86C375.46,223.45,375.26,224.09,375.44,224.21Z" style="fill:#263238"></path><path d="M365.94,244c0-.15-1.7-.36-4.45-.57-.7,0-1.36-.14-1.5-.61a3.49,3.49,0,0,1,.36-2.08c.56-1.71,1.16-3.51,1.78-5.39,2.48-7.67,4.23-14,3.92-14.05s-2.57,6-5,13.7l-1.7,5.42a4,4,0,0,0-.22,2.74,1.74,1.74,0,0,0,1.19,1,4.69,4.69,0,0,0,1.19.1C364.23,244.22,365.94,244.15,365.94,244Z" style="fill:#263238"></path><path d="M365.68,276.25a50.19,50.19,0,0,0,26-8.35s-6.38,14-26.18,13.14Z" style="fill:#6f4439"></path><path d="M367.42,250.49a4.9,4.9,0,0,1,4.3-2,4.44,4.44,0,0,1,3.17,1.5,2.84,2.84,0,0,1,.38,3.23,3.29,3.29,0,0,1-3.52,1.08,10.41,10.41,0,0,1-3.58-1.9,3,3,0,0,1-.81-.77.91.91,0,0,1-.05-1" style="fill:#6f4439"></path><path d="M374,245.47c-.45,0-.3,2.95-2.73,5.17s-5.57,2.06-5.57,2.47c0,.19.72.54,2.05.51a7.35,7.35,0,0,0,4.67-1.9,6.37,6.37,0,0,0,2.09-4.32C374.6,246.16,374.24,245.45,374,245.47Z" style="fill:#263238"></path><path d="M372.84,213.61c.37.69,3-.07,6.22-.17s5.9.37,6.22-.35c.14-.35-.41-1-1.55-1.52a10.86,10.86,0,0,0-9.48.4C373.16,212.62,372.67,213.28,372.84,213.61Z" style="fill:#263238"></path><path d="M348.25,212.25c.5.59,2.35-.14,4.6-.29s4.17.21,4.58-.46c.18-.32-.15-.92-1-1.47a6.33,6.33,0,0,0-3.79-.82,6.42,6.42,0,0,0-3.61,1.42C348.25,211.31,348,212,348.25,212.25Z" style="fill:#263238"></path><path d="M406.52,238.63s-13.92,4.33-21.8-30C382,196.85,368.22,189,368.22,189l7.34-3s27.45,7.73,27.91,8.08,6.93,14.2,6.93,14.2Z" style="fill:#263238"></path><path d="M400.43,237.35c-.07-1.47,1.45-5,2.89-5.31,3.84-.8,10.83-.84,11.38,9,.76,13.43-12.87,11.42-12.92,11S400.67,242.41,400.43,237.35Z" style="fill:#ae7461"></path><path d="M405.6,246.74s.24.15.64.31A2.32,2.32,0,0,0,408,247c1.39-.6,2.46-2.92,2.39-5.35a7.79,7.79,0,0,0-.85-3.31,2.67,2.67,0,0,0-1.86-1.69,1.18,1.18,0,0,0-1.34.72c-.16.38-.06.65-.13.67s-.3-.21-.22-.77a1.5,1.5,0,0,1,.48-.87,1.73,1.73,0,0,1,1.27-.41,3.27,3.27,0,0,1,2.56,1.94,7.87,7.87,0,0,1,1,3.7c.07,2.71-1.17,5.32-3.08,6a2.49,2.49,0,0,1-2.16-.24C405.64,247.07,405.55,246.77,405.6,246.74Z" style="fill:#6f4439"></path><path d="M400.43,237.25c0-.05-.74-.05-2-.41a12.08,12.08,0,0,1-4.78-2.77,16.67,16.67,0,0,1-2.5-2.92,23.26,23.26,0,0,1-2-3.92,86.39,86.39,0,0,1-2.89-9.77,99.49,99.49,0,0,0-3.09-9.75,55.86,55.86,0,0,0-3.49-7.58,40.61,40.61,0,0,0-3.08-4.72c-.4-.53-.74-.92-1-1.19a2.5,2.5,0,0,0-.36-.39,4.54,4.54,0,0,0,.3.44c.2.28.53.68.91,1.23a44.81,44.81,0,0,1,3,4.75,58.87,58.87,0,0,1,3.42,7.58c1.1,2.93,2.11,6.23,3.05,9.73a81.17,81.17,0,0,0,2.93,9.79,21.73,21.73,0,0,0,2.09,4,16.39,16.39,0,0,0,2.57,2.95,11.9,11.9,0,0,0,4.91,2.72A7.46,7.46,0,0,0,400.43,237.25Z" style="fill:#263238"></path><path d="M437.25,433.23c-4.91-13-10.71-18.72-13.07-26.91,0,0-.65-10-.47-15.08s2.17-25.1,2.17-25.1l5.29-57a9.6,9.6,0,0,0-5.83-9.72L403.11,289c-16,5.66-29.67,7.31-37.59-1.05,0,0-25,7.78-34.69,12.17-9.35,4.22-14.16,17.79-15.82,20.63,0,0,1.71,20.58,4.5,35.38,3.62,19.13,4.85,28.19,5.12,28.95A190.19,190.19,0,0,1,331.32,409c-1.33,4.77-1,4.75-.49,2.56l-7.46,39.1c-1.68,3.4,30,15.77,49.84,14.23,27.33-.68,48.5-6.15,65-14.67C442.88,446,439.55,439.33,437.25,433.23Z" style="fill:#455a64"></path><path d="M427.17,300.44s22.65,8.3,27.51,42,14,59.52,17.88,79.93c3,15.93,6,47.93,6,47.93H454.8l-22.53-70.74-6.71-30.1-5.11-24.2Z" style="fill:#455a64"></path><path d="M430.11,297.34l-.18-.28c-.14-.18-.32-.44-.56-.78a12.77,12.77,0,0,1-.88-1.29c-.16-.26-.33-.55-.52-.85l-.28-.47-.27-.52a26,26,0,0,1-1.14-2.4c-.19-.46-.4-.92-.58-1.41s-.36-1-.54-1.56a45.11,45.11,0,0,1-1.69-7.53,73.83,73.83,0,0,1,.36-20.06c.48-3.76,1.46-7.63,1.92-11.76a25.22,25.22,0,0,0,0-6.32A16.71,16.71,0,0,0,425,239a18.28,18.28,0,0,0-1.39-3c-2.23-3.84-5.49-6.75-8.61-9.43s-6.2-5.24-9-7.82a191.74,191.74,0,0,1-14.06-14.43c-3.79-4.3-6.66-8-8.61-10.5-1-1.28-1.72-2.28-2.22-3l-.58-.76a2.34,2.34,0,0,0-.21-.26l.18.27.55.79c.49.69,1.22,1.71,2.18,3,1.92,2.57,4.77,6.25,8.54,10.58a189,189,0,0,0,14,14.49c2.77,2.59,5.8,5.2,9,7.85s6.35,5.57,8.55,9.35a19.41,19.41,0,0,1,1.36,2.93,16.68,16.68,0,0,1,.75,3.1,24.59,24.59,0,0,1,0,6.24c-.45,4.09-1.42,8-1.9,11.75a73.32,73.32,0,0,0-.3,20.13,46.22,46.22,0,0,0,1.75,7.56c.19.53.38,1.05.55,1.56s.41,1,.6,1.41c.36.91.81,1.68,1.17,2.4l.28.52.29.47.53.84a15.56,15.56,0,0,0,.9,1.28l.59.76Z" style="fill:#455a64"></path><path d="M331.32,328.87a4.27,4.27,0,0,1-.26.72c-.2.51-.48,1.19-.82,2s-.81,2-1.28,3.23-1,2.69-1.55,4.32c-.27.8-.55,1.65-.84,2.53l-.78,2.78c-.29,1-.52,2-.74,3s-.52,2.1-.68,3.21a67.66,67.66,0,0,0-1.13,14.52,99.72,99.72,0,0,0,4.65,26.05c.51,1.62,1,3.09,1.39,4.38s.81,2.36,1.12,3.28l.71,2.08a5.91,5.91,0,0,1,.21.74,3.79,3.79,0,0,1-.31-.7l-.8-2.05c-.33-.89-.76-2-1.21-3.25s-.92-2.76-1.46-4.37a95.51,95.51,0,0,1-4.82-26.15,66,66,0,0,1,1.18-14.62c.17-1.12.48-2.18.7-3.22s.48-2.06.78-3l.81-2.79c.3-.88.6-1.73.87-2.53.54-1.63,1.14-3.05,1.63-4.31s1-2.33,1.36-3.2l.92-2A3.59,3.59,0,0,1,331.32,328.87Z" style="fill:#263238"></path><path d="M400.65,270.14c1.68-4.43,3.55-8.87,4-13.55l22.61,43.85c-2.16-2.94-6.44-3.8-10.3-3.92s-7.91.21-11.42-1.26c-4.65-1.94-7.28-6.73-7.66-11.4S399,274.56,400.65,270.14Z" style="fill:#263238"></path><path d="M423.38,297.79s-.06,0-.17,0l-.51.07-1.93.3-7.11,1.16c-1.5.25-3.13.55-4.91.69a14.2,14.2,0,0,1-5.58-.53,9.89,9.89,0,0,1-4.87-3.69,14.64,14.64,0,0,1-2.41-6.18,18.75,18.75,0,0,1,.34-6.66,35.36,35.36,0,0,1,1.92-6c1.52-3.71,3.15-7,4.19-9.82a28.6,28.6,0,0,0,1.79-7,18.44,18.44,0,0,0,.11-1.95v-.51a1.23,1.23,0,0,0,0-.18s0,.06,0,.18l0,.5c0,.45-.06,1.11-.17,1.95a30.2,30.2,0,0,1-1.88,6.91c-1.06,2.84-2.71,6.06-4.26,9.79a37.45,37.45,0,0,0-1.95,6,18.93,18.93,0,0,0-.34,6.78,14.74,14.74,0,0,0,2.47,6.31,10.17,10.17,0,0,0,5,3.79,14.21,14.21,0,0,0,5.69.51c1.8-.15,3.44-.47,4.93-.72l7.09-1.27,1.92-.36.5-.1Z" style="fill:#263238"></path><path d="M423.53,335.52c.14,0,.68,8.1,1.2,18.12s.82,18.15.68,18.16-.68-8.11-1.2-18.13S423.39,335.52,423.53,335.52Z" style="fill:#263238"></path><path d="M274.1,461.87c1.38-1.31.39-4.24.39-4.24a27.37,27.37,0,0,1-.18-2.8c-.09-2.31-8.31-21.08-8.39-21.25-2.29-5.17-48.19-96.61-48.19-96.61l-22.25,15.34s17.3,44.08,20.74,50.47L245.4,442c-1.38,1.32-5.8,22.14-5.8,22.14s-2.09,6.8-1.91,7.76,2.7,4.22,2.7,4.22.37,2.54,1.22,3.34,2.86.73,4.46-1.88.17-5.75.17-5.75l2.83-7.95L258,479.92c-1.27,1.12-1.61,2.43-1.32,3.08s5,3.39,7,3.75,10.22-3.24,10.51-4.42-2.33-6.87-2.33-6.87l1.34-8.08A6.45,6.45,0,0,0,274.1,461.87Z" style="fill:#ffbf9d"></path><path d="M244.71,443.42s-8.16,2.92-9.67,5.95-2.18,10.47-1.19,12.42,6.94,8,8.2,7.64a4.29,4.29,0,0,0,2.47-6,51,51,0,0,0-3.13-5.78Z" style="fill:#ae7461"></path><path d="M246.62,465.68s1.27-2.06,2.45-1.85c0,0,2.17-8.39,4.81-11.52s5.38-1.42,5.31,1-2.1,6.63-2.45,8.83-1.37,7.72-3,9.22-4.81,2.16-6.67,2l-.4.11a12.09,12.09,0,0,1-.8-2.77A6.18,6.18,0,0,1,246.62,465.68Z" style="fill:#ae7461"></path><path d="M262.92,451.78c.18,0,2.91.78,1.21,6.14S262.19,469,262,471.05s-.86,4.22-3.59,5.14-8.61,0-9.26-.41a2.54,2.54,0,0,1-1.64-2.35l8.43-11.66S258.3,450.84,262.92,451.78Z" style="fill:#ae7461"></path><path d="M266.48,460.78s2.36.3,1.7,4.05-1.82,10.42-2.09,11.07-2,5.27-4.34,5.54-3.61-.34-4.31-1a6.73,6.73,0,0,1-2.11-3.86l5.11-4.57,2.46-8.95S264.15,460,266.48,460.78Z" style="fill:#ae7461"></path><path d="M266.16,481.4c.12-.09.67.49,1.43,1.1s1.42,1.06,1.36,1.19-.89-.12-1.69-.79S266,481.48,266.16,481.4Z" style="fill:#ff9a6c"></path><path d="M268,474.24s1.52.24,1.21,3-1.46,6.08-4.38,6-3.76,0-4.27-1.7l2.2-.48s1.62-4.69,2.18-5.75A2.37,2.37,0,0,1,268,474.24Z" style="fill:#ae7461"></path><path d="M263.3,486.07c-.13.05-.44-.56-.49-1.39s.19-1.47.33-1.44.14.66.19,1.41S263.44,486,263.3,486.07Z" style="fill:#ff9a6c"></path><path d="M270.44,468.47a12.43,12.43,0,0,1,.94,3.43,12.28,12.28,0,0,1,.43,3.53,24.33,24.33,0,0,1-1.37-7Z" style="fill:#ff9a6c"></path><path d="M272.5,459.09c.11-.08.74.55,1.18,1.53s.5,1.87.36,1.89-.42-.76-.84-1.68S272.39,459.18,272.5,459.09Z" style="fill:#ff9a6c"></path><path d="M273.6,455.84c.13-.06.39.21.58.61s.24.78.11.84-.39-.21-.58-.61S273.47,455.9,273.6,455.84Z" style="fill:#ff9a6c"></path><path d="M258.81,477.92c-.13.06-.42-.36-.37-1s.42-1,.54-.88,0,.46,0,.93S258.94,477.87,258.81,477.92Z" style="fill:#6f4439"></path><g style="opacity:0.1"><path d="M255.26,451.88a3.9,3.9,0,0,0-.65,2A1.86,1.86,0,0,0,255,455a1.69,1.69,0,0,0,2.7-.29,4.56,4.56,0,0,0,.75-1.91,1.38,1.38,0,0,0-1.15-1.69,2.87,2.87,0,0,0-1.12,0A1.47,1.47,0,0,0,255.26,451.88Z" style="fill:#fff"></path></g><g style="opacity:0.1"><path d="M238.87,463.41a2.6,2.6,0,0,1,3.78.11,4.49,4.49,0,0,1,1.32,3.19,2.36,2.36,0,0,1-1.39,2.33,2.64,2.64,0,0,1-2.52-1,8.16,8.16,0,0,1-1.54-2.39,2.74,2.74,0,0,1-.25-1.19,1.18,1.18,0,0,1,.6-1" style="fill:#fff"></path></g><path d="M233.94,460.24c-.11-.08.57-1,1.86-1.6a3.18,3.18,0,0,1,2.44-.3c0,.15-1.06.25-2.23.78S234.05,460.34,233.94,460.24Z" style="fill:#6f4439"></path><path d="M238.5,471.74a5.54,5.54,0,0,1,4.62,1.12,12.36,12.36,0,0,1-2.3-.58A12.55,12.55,0,0,1,238.5,471.74Z" style="fill:#ff9a6c"></path><path d="M245.05,473c-.13-.06,0-.59.22-1.18s.56-1,.69-1,0,.58-.21,1.18S245.18,473.06,245.05,473Z" style="fill:#ff9a6c"></path><path d="M238.48,449.69c.07-.12,1.24.66,2,2.15a4.34,4.34,0,0,1,.68,2.88c-.16,0-.39-1.26-1.14-2.64S238.38,449.8,238.48,449.69Z" style="fill:#6f4439"></path><path d="M271,483c0-.15.65-.39,1.42-.81s1.37-.84,1.47-.74-.37.75-1.22,1.2S271,483.17,271,483Z" style="fill:#ff9a6c"></path><path d="M256.14,473.37c.11-.1.71.41,1.56.79s1.62.52,1.61.67-.87.24-1.83-.2S256,473.46,256.14,473.37Z" style="fill:#6f4439"></path><path d="M250.11,469.46c.08-.12.59.06,1.19.28s1.1.4,1.08.55-.6.18-1.26-.06S250,469.58,250.11,469.46Z" style="fill:#6f4439"></path><g style="opacity:0.1"><path d="M264.61,462.32a5.31,5.31,0,0,0-.38,2.07,1.82,1.82,0,0,0,1.18,1.61,1.79,1.79,0,0,0,1.89-.93,5.33,5.33,0,0,0,.57-2.17s-.27-1.64-1.51-1.82S264.61,462.32,264.61,462.32Z" style="fill:#fff"></path></g><g style="opacity:0.1"><path d="M262.07,452.15c-1.51.49-1.74,2-2,3.26a2.21,2.21,0,0,0,.16,1.58,1.8,1.8,0,0,0,1.65.76,2.14,2.14,0,0,0,2-1.16,3.69,3.69,0,0,0,.25-3C263.57,451.79,262.52,452,262.07,452.15Z" style="fill:#fff"></path></g><g style="opacity:0.2"><path d="M244.29,478.76a2.51,2.51,0,0,0-1.18-2.09,3.1,3.1,0,0,0-2.34-.55s-.21.14-.18.3a9.86,9.86,0,0,0,1.12,2.84C242.21,479.76,244.14,479.84,244.29,478.76Z" style="fill:#fff"></path></g><g style="opacity:0.1"><path d="M267.67,474.67a1.19,1.19,0,0,1,1.05.76,2.46,2.46,0,0,1,.11,1.35,1.85,1.85,0,0,1-.54,1.17,1.33,1.33,0,0,1-1,.26,1.7,1.7,0,0,1-1.35-1,1.75,1.75,0,0,1,.11-1.66,1.84,1.84,0,0,1,1.44-.86" style="fill:#fff"></path></g><path d="M263.15,462.29a15,15,0,0,1-.1,2.81c-.12,1.73-.33,4.11-.6,6.74a6.77,6.77,0,0,1-.46,2,3.38,3.38,0,0,1-1.22,1.46,7.26,7.26,0,0,1-3,1,19.17,19.17,0,0,0-2.73.56,5.56,5.56,0,0,1,2.66-.92,7.61,7.61,0,0,0,2.75-1,2.87,2.87,0,0,0,1-1.27,6.39,6.39,0,0,0,.41-1.81c.27-2.62.54-5,.76-6.72A15.77,15.77,0,0,1,263.15,462.29Z" style="fill:#6f4439"></path><path d="M266.59,471.26a6.67,6.67,0,0,1,0,1.92,13.93,13.93,0,0,1-1,4.57,7.19,7.19,0,0,1-3.1,3.5,3,3,0,0,1-1.88.49c0-.09.72-.19,1.69-.8a7.63,7.63,0,0,0,2.81-3.4,17,17,0,0,0,1.11-4.4A7.38,7.38,0,0,1,266.59,471.26Z" style="fill:#6f4439"></path><path d="M246.72,473.46c0-.09,1.35,0,3.45-.48a8.73,8.73,0,0,0,3.38-1.44,6,6,0,0,0,1.94-3.92c.29-1.6.38-3.19.73-4.61a35.31,35.31,0,0,1,1-3.69,12.64,12.64,0,0,1,1.09-2.35,2.59,2.59,0,0,1,.57-.75,28.16,28.16,0,0,0-1.31,3.22c-.32,1-.61,2.28-.91,3.68s-.39,2.94-.69,4.6a6.33,6.33,0,0,1-2.16,4.2,8.52,8.52,0,0,1-3.6,1.42,12.82,12.82,0,0,1-2.58.21A2.63,2.63,0,0,1,246.72,473.46Z" style="fill:#6f4439"></path><path d="M248.08,469a3.9,3.9,0,0,1-.2-2.74,3.8,3.8,0,0,1,1.25-2.45c.13.08-.47,1.13-.74,2.55S248.24,469,248.08,469Z" style="fill:#6f4439"></path><path d="M107.84,267.75l-2-73.71c-1.1-18.32,8.64-34.24,27-34.83l1.7,0a32.81,32.81,0,0,1,31.92,31c.87,15.89,1.63,33.45,1.3,41.95-.67,17.6-18.35,19.88-18.35,19.88s.06,10.71.15,15.88l-8.06,13.7-20.12,7.06Z" style="fill:#ffbf9d"></path><path d="M149.35,252.08a42.54,42.54,0,0,1-22.75-7.36s5.18,13.37,22.79,12.24Z" style="fill:#ff9a6c"></path><path d="M161,206.38a2.53,2.53,0,0,1-2.49,2.48,2.42,2.42,0,0,1-2.54-2.34,2.51,2.51,0,0,1,2.49-2.47A2.41,2.41,0,0,1,161,206.38Z" style="fill:#263238"></path><path d="M162.46,197.93c-.32.32-2.19-1.14-4.9-1.2s-4.72,1.24-5,.9c-.14-.15.19-.74,1.07-1.34a6.86,6.86,0,0,1,4-1.13,6.56,6.56,0,0,1,3.88,1.37C162.35,197.19,162.62,197.79,162.46,197.93Z" style="fill:#263238"></path><path d="M136.76,205.45a2.53,2.53,0,0,1-2.49,2.47,2.41,2.41,0,0,1-2.54-2.33,2.53,2.53,0,0,1,2.49-2.48A2.42,2.42,0,0,1,136.76,205.45Z" style="fill:#263238"></path><path d="M135.92,197.87c-.32.32-2.19-1.14-4.89-1.2s-4.73,1.24-5,.9c-.14-.15.19-.73,1.07-1.34a6.89,6.89,0,0,1,4-1.13,6.66,6.66,0,0,1,3.89,1.37C135.81,197.13,136.08,197.73,135.92,197.87Z" style="fill:#263238"></path><path d="M145.09,218.91c0-.15,1.68-.4,4.41-.68.7,0,1.35-.17,1.48-.64a3.45,3.45,0,0,0-.41-2.06c-.6-1.69-1.24-3.46-1.9-5.31-2.65-7.57-4.54-13.78-4.24-13.88s2.7,5.94,5.34,13.5q1,2.81,1.82,5.35a3.94,3.94,0,0,1,.29,2.72,1.73,1.73,0,0,1-1.16,1,4.77,4.77,0,0,1-1.18.13C146.8,219.1,145.1,219.07,145.09,218.91Z" style="fill:#263238"></path><path d="M137,189.43c-.39.68-3-.11-6.19-.26s-5.87.27-6.18-.45c-.13-.34.42-.95,1.56-1.48a10.73,10.73,0,0,1,9.42.54C136.7,188.44,137.19,189.11,137,189.43Z" style="fill:#263238"></path><path d="M162.79,190c-.57.61-2.77-.06-5.42-.11s-4.9.36-5.4-.29c-.23-.32.13-.93,1.12-1.5a9.05,9.05,0,0,1,8.72.32C162.74,189,163,189.68,162.79,190Z" style="fill:#263238"></path><path d="M106.9,207.11c-.29-.14-12-3.89-11.93,8.16s12.15,9.48,12.17,9.14S106.9,207.11,106.9,207.11Z" style="fill:#ffbf9d"></path><path d="M103.43,219.87c-.05,0-.2.14-.56.31a2.11,2.11,0,0,1-1.57,0c-1.27-.46-2.36-2.47-2.43-4.64a7.09,7.09,0,0,1,.57-3A2.43,2.43,0,0,1,101,211a1.06,1.06,0,0,1,1.24.57c.17.33.09.57.15.59s.26-.2.16-.7a1.3,1.3,0,0,0-.48-.75,1.59,1.59,0,0,0-1.16-.3,3,3,0,0,0-2.18,1.88A7.18,7.18,0,0,0,98,215.6c.1,2.43,1.35,4.7,3.1,5.19a2.27,2.27,0,0,0,1.91-.33C103.41,220.16,103.48,219.89,103.43,219.87Z" style="fill:#ff9a6c"></path><path d="M136.62,220.72c.42,0,.48,2.73,2.88,4.65s5.35,1.55,5.38,1.94c0,.17-.65.55-1.89.6a6.86,6.86,0,0,1-4.48-1.46,6,6,0,0,1-2.24-3.9C136.14,221.4,136.43,220.71,136.62,220.72Z" style="fill:#263238"></path><path d="M190.47,174a2.89,2.89,0,0,0-1.35-1.66c-1.38-.81-3-.7-4.51-.72a25.2,25.2,0,0,1-11-2.72,12.63,12.63,0,0,0,3.23-2.29c1.94-1.95,3-4.93,2.14-7.52A1.66,1.66,0,0,0,178,158c-.78-.24-1.46.53-2,1.14-1.78,2-3.43,2.88-6.11,2.62a10.64,10.64,0,0,1-4.59-1.33l-.15-.17c-.63-.64-1.24-1.26-1.85-1.85h0c-4.55-4.48-8.46-7.58-12.48-9.18-5.89-2.34-15.73-3.26-21.86-1.63s-11.61,6.63-12.44,12.92c-3.45-2.89-8.61-2.85-12.79-1.15l-.11,0C99,161,96.33,165.92,95,170.68l-.21.79a18.5,18.5,0,0,1-6.25,6.16c-.45.26-1,.58-1,1.1A1.5,1.5,0,0,0,88.3,180a9.11,9.11,0,0,0,3.78,1.55,20.1,20.1,0,0,1-1.54,3.29c-.52.89-1.14,2-.68,2.89a2,2,0,0,0,2.07.89,5.73,5.73,0,0,0,2.16-1c-.51,1.24-1,2.49-1.54,3.74a11,11,0,0,0,5.07-.36c1,4.44,1.79,12.68,2.95,15.69,3.2,0,4-.31,5.59.22,2.08.68,1.3,4.38,4,3.32,1.38-.54,3.48-5.79,3.94-7.2A68.74,68.74,0,0,0,117,173.89a22,22,0,0,1,6.81-5l-.21.19c4.92-1.73,10.48-3.44,15.17-1.15,3.63,1.78,5.77,5.54,8.5,8.53,5.16,5.66,11,8.68,18.64,9,.72,5.31,1,14,1.24,19l4.19-9.95v0a19.37,19.37,0,0,0,.89-1.76l.09-.18v0a30.72,30.72,0,0,1,1.38-2.83l0,0c2.7,2.36,6.65-1.28,4.51-4.16a6.47,6.47,0,0,0-1.5-1.5,4.93,4.93,0,0,0,4.68,1.19,3.84,3.84,0,0,0,2.7-3.82,3.26,3.26,0,0,0-2-2.62,11,11,0,0,0,6.28-1.41C189.68,176.76,190.89,175.59,190.47,174Z" style="fill:#263238"></path><path d="M122.07,162.49a15.73,15.73,0,0,0-1.76,1.63,12.61,12.61,0,0,0-2.68,5.86,22.91,22.91,0,0,0-.44,4.48c0,1.63.14,3.37.27,5.2a45.48,45.48,0,0,1,.16,5.78,19,19,0,0,1-.39,3.05,6.16,6.16,0,0,1-1.23,3,2.64,2.64,0,0,1-2.48.85,4,4,0,0,1-2.25-1.26,9,9,0,0,1-1.71-4.47l.37,0a15,15,0,0,1-2.13,3.7,5.27,5.27,0,0,1-3.42,1.89,3.38,3.38,0,0,1-1.82-.31,2.87,2.87,0,0,1-1.24-1.22,2.91,2.91,0,0,1-.38-1.56,2.14,2.14,0,0,1,.56-1.37l.18.16a11,11,0,0,1-4.94,3.32l-.42.11a1.79,1.79,0,0,1,.39-.17c.27-.11.65-.27,1.14-.52a11.74,11.74,0,0,0,3.64-2.9l.19.17a2.27,2.27,0,0,0-.11,2.62,2.66,2.66,0,0,0,1.13,1.07,3,3,0,0,0,1.64.26,4.91,4.91,0,0,0,3.18-1.79,14.4,14.4,0,0,0,2-3.62l.25-.56.12.61a8.86,8.86,0,0,0,1.64,4.27,3.52,3.52,0,0,0,2,1.12,2.26,2.26,0,0,0,2.12-.71,6,6,0,0,0,1.13-2.77,20.58,20.58,0,0,0,.39-3,47.07,47.07,0,0,0-.14-5.74c-.12-1.83-.24-3.57-.23-5.22a22.64,22.64,0,0,1,.49-4.54,12.55,12.55,0,0,1,2.85-5.91A7.26,7.26,0,0,1,122.07,162.49Z" style="fill:#455a64"></path><path d="M176.68,179.42s0,.05-.14.12l-.44.33a6.41,6.41,0,0,1-.74.48,11.39,11.39,0,0,1-1.07.57,15.71,15.71,0,0,1-7.54,1.39,20,20,0,0,1-10.66-3.89,34.61,34.61,0,0,1-9.18-10.5c-1.3-2.13-2.35-4.31-3.51-6.33a23.16,23.16,0,0,0-4-5.35,12,12,0,0,0-5.09-3.06,8.63,8.63,0,0,0-2.68-.3,9.67,9.67,0,0,0-2.46.48,10.19,10.19,0,0,0-3.66,2.23,10.33,10.33,0,0,0-2,2.59,11.47,11.47,0,0,0-.9,2.65.69.69,0,0,1,0-.19c0-.15,0-.32.08-.54a9.41,9.41,0,0,1,.66-2,10.11,10.11,0,0,1,2-2.69,10.31,10.31,0,0,1,3.73-2.33,9.72,9.72,0,0,1,2.53-.53,8.9,8.9,0,0,1,2.78.29A12.24,12.24,0,0,1,139.7,156a23.53,23.53,0,0,1,4.05,5.42c1.17,2,2.23,4.21,3.51,6.32a34.52,34.52,0,0,0,9.05,10.4A19.88,19.88,0,0,0,166.76,182a16,16,0,0,0,7.46-1.25A23.26,23.26,0,0,0,176.68,179.42Z" style="fill:#455a64"></path><path d="M178.25,171.67a2.46,2.46,0,0,1-.63.44,12.76,12.76,0,0,1-1.86,1,19.29,19.29,0,0,1-3,1,20.66,20.66,0,0,1-3.79.51,20.19,20.19,0,0,1-3.82-.24,18.09,18.09,0,0,1-3-.77,13.25,13.25,0,0,1-1.94-.82,2.49,2.49,0,0,1-.66-.4c0-.07,1,.43,2.69.94a20,20,0,0,0,3,.68,23.4,23.4,0,0,0,3.74.2,23,23,0,0,0,3.72-.47,21.72,21.72,0,0,0,2.94-.89C177.28,172.17,178.22,171.6,178.25,171.67Z" style="fill:#455a64"></path><polygon points="104.69 469.75 163.27 470.19 153.88 440.33 99.33 445.62 104.69 469.75" style="fill:#263238"></polygon><path d="M107.35,261a46.08,46.08,0,0,0,24.3,7.2c13.4,0,19.84-2.88,19.84-2.88l2.93,9.36,14.5,102.81L165.82,450l-83.71,1.25L107,363.08l-2.44-92.3Z" style="fill:#f5f5f5"></path><path d="M184,277.13,158.27,266l-5.63-9.33-3.25-1.78.82,17.51c0,.11,2.73,35.38,2.67,37.55-.93,29.22-3.12,160.09-3.12,160.09l35.11.12,3.07-4.23L185.46,458l.8-71,1.21-62.77Z" style="fill:#D60000"></path><path d="M181.21,276s6.18-.34,16.57,20.11c8.12,16,27.37,50.75,27.37,50.75s29.93,51.33,37,72.43l-.38,5.88-20.62,12.37-6-3.67-30.23-48.15-3.23-5.63-24.06-32.22-25.51-44.39Z" style="fill:#D60000"></path><path d="M114.83,329.15c-.86-16.6-4.69-47.69-4.7-48.52,0-.62-2.61-29.38-2.61-29.38l-8.93,10L68.5,271.71v85.6l6.92,47.24,4.67,64.75,36.42.62s-.76-34.14,0-58.64C117.45,384.37,115.69,345.75,114.83,329.15Z" style="fill:#D60000"></path><path d="M50.3,462.14,39.54,395.52l-.94-10.76,3.63-3.25s-1.63-54.79,0-67.46,2.25-18.65,4.94-25.42C51.06,278.84,68.81,272,68.81,272l3,82.16,8.25,105.12Z" style="fill:#D60000"></path><path d="M76.56,459.6l-26,2.52c.59,4.79.9,7.2.9,7.2H77.22Z" style="fill:#ffbf9d"></path><path d="M67,292.44s.15.61.31,1.78.37,2.9.63,5.13c.5,4.46,1.18,10.92,2,18.91s1.67,17.5,2.46,28.09,1.52,22.22,2.36,34.43c0,.24,0,.48,0,.7h0v0c-.07,6.06.24,12,.53,17.72s.65,11.25,1,16.5c.69,10.51,1.39,20,2,27.89s1.09,14.33,1.42,18.79c.17,2.2.29,3.91.38,5.1l.09,1.33c0,.3,0,.46,0,.46s0-.15-.07-.45-.08-.76-.13-1.33c-.11-1.19-.27-2.9-.48-5.09-.37-4.46-.91-10.87-1.58-18.78s-1.37-17.38-2.09-27.89c-.35-5.25-.71-10.77-1-16.5s-.61-11.66-.54-17.77v0c0-.22,0-.46,0-.7-.82-12.22-1.61-23.85-2.32-34.44s-1.63-20.1-2.34-28.09-1.37-14.43-1.79-18.92c-.23-2.21-.41-3.94-.54-5.14-.06-.59-.11-1-.16-1.33A3.89,3.89,0,0,1,67,292.44Z" style="fill:#263238"></path><path d="M110.94,298.74a1.4,1.4,0,0,1-.11-.36c-.07-.29-.16-.65-.26-1.08-.23-1-.54-2.38-.92-4.09-.76-3.57-1.82-8.54-3.07-14.37l.43.09c-2.44,3.47-5.15,7.34-8,11.41l-1.84,2.6-.46.66v-.8c-.08-8.76.32-16.55.78-22.13.22-2.79.45-5,.63-6.57.09-.73.17-1.32.23-1.77a2.41,2.41,0,0,1,.11-.62,2.75,2.75,0,0,1,0,.63c0,.45-.07,1-.13,1.78-.11,1.6-.27,3.83-.47,6.58-.37,5.58-.7,13.35-.61,22.09l-.47-.15,1.83-2.6,8-11.39.32-.45.11.54c1.17,5.85,2.17,10.83,2.88,14.41.33,1.72.59,3.1.79,4.11.07.45.13.81.18,1.1S111,298.74,110.94,298.74Z" style="fill:#263238"></path><path d="M157.65,265.21a2.2,2.2,0,0,1,.22.47l.52,1.37,2,5.07c1.65,4.31,4.09,10.23,6.45,17l.37,1-.79-.78-1.78-1.76L156.83,280c-.3-.3-.58-.6-.84-.56s-.45.34-.56.69c-.19.73-.37,1.51-.55,2.23-.35,1.45-.68,2.8-1,4.05l-1.45,5.84L152,293.8a2.18,2.18,0,0,1-.19.54,3,3,0,0,1,.08-.57l.33-1.6c.32-1.46.76-3.46,1.3-5.89.28-1.25.58-2.6.91-4.06.18-.73.33-1.47.54-2.27a1.87,1.87,0,0,1,.28-.61,1,1,0,0,1,.67-.41c.62,0,.93.44,1.22.69l7.8,7.68,1.77,1.76-.43.26c-2.34-6.78-4.73-12.73-6.29-17.07-.8-2.17-1.41-3.92-1.81-5.14-.2-.6-.34-1.08-.44-1.4A2.75,2.75,0,0,1,157.65,265.21Z" style="fill:#263238"></path><path d="M187.94,305.42a1.65,1.65,0,0,1,0,.39v1.12c0,1,0,2.46-.05,4.31-.06,3.77-.16,9.18-.28,15.85-.28,13.41-.68,31.88-1.11,52.29s-1,38.89-1.27,52.3c-.19,6.67-.34,12.08-.44,15.85-.07,1.85-.12,3.29-.15,4.31,0,.47,0,.84,0,1.12a2.28,2.28,0,0,1,0,.38,2.79,2.79,0,0,1,0-.38v-1.12c0-1,0-2.47,0-4.31.07-3.78.16-9.18.28-15.85.29-13.41.68-31.89,1.12-52.31s.94-38.88,1.27-52.29c.18-6.67.33-12.08.44-15.85.06-1.85.11-3.29.15-4.31,0-.47,0-.84,0-1.12A1.88,1.88,0,0,1,187.94,305.42Z" style="fill:#263238"></path><path d="M239.94,380.65c0,.14-7.11,1.56-15.94,3.16s-16,2.78-16,2.64,7.11-1.55,15.94-3.16S239.92,380.51,239.94,380.65Z" style="fill:#263238"></path><path d="M261.62,420.41c.07.12-5.6,3.09-12.64,6.61s-12.82,6.28-12.89,6.15,5.6-3.09,12.65-6.61S261.56,420.28,261.62,420.41Z" style="fill:#263238"></path><path d="M76.88,451.56a3.34,3.34,0,0,1-.95.32c-.62.18-1.53.4-2.65.65a81.35,81.35,0,0,1-17.87,1.77c-1.15,0-2.08-.06-2.73-.11a4.05,4.05,0,0,1-1-.13,32.82,32.82,0,0,1,3.71-.13c2.3-.06,5.46-.2,8.94-.54s6.61-.83,8.87-1.23S76.86,451.49,76.88,451.56Z" style="fill:#263238"></path><path d="M69.79,315.6a54.29,54.29,0,0,1-5.19-5.4,54,54,0,0,1-4.8-5.75,53,53,0,0,1,5.19,5.4A54,54,0,0,1,69.79,315.6Z" style="fill:#263238"></path></g></svg>